<?xml version="1.0" standalone="no"?>
<!DOCTYPE svg PUBLIC "-//W3C//DTD SVG 20010904//EN"
 "http://www.w3.org/TR/2001/REC-SVG-20010904/DTD/svg10.dtd">
<svg version="1.0" xmlns="http://www.w3.org/2000/svg"
 width="249.000000pt" height="322.000000pt" viewBox="0 0 249.000000 322.000000"
 preserveAspectRatio="xMidYMid meet">

<g transform="translate(0.000000,322.000000) scale(0.100000,-0.100000)"
fill="#000000" stroke="none">
<path d="M39 3191 c6 -10 45 -74 88 -142 l78 -124 5 -1458 5 -1459 123 146
c67 80 122 148 122 151 0 3 -12 2 -27 -1 -36 -8 -27 0 69 65 94 64 110 81 78
81 -18 0 -8 9 38 39 33 22 72 57 86 78 25 36 26 38 7 41 -16 3 -7 16 49 69 39
36 70 69 70 74 0 5 -9 9 -20 9 -18 0 -16 5 15 46 35 46 70 104 63 107 -148 72
-220 118 -206 132 3 4 45 15 91 25 113 25 160 50 232 125 46 48 71 66 105 75
89 24 107 37 166 120 62 89 84 98 113 49 9 -14 25 -38 35 -54 18 -25 18 -28 3
-36 -9 -5 -14 -16 -11 -24 4 -9 0 -15 -9 -15 -20 0 -44 -87 -29 -102 14 -14
100 62 94 82 -3 7 10 2 27 -11 21 -15 31 -31 31 -48 0 -38 -41 -119 -89 -176
-67 -81 -84 -166 -58 -291 10 -45 10 -61 2 -58 -8 4 -9 -10 -4 -48 12 -82 11
-156 -1 -138 -8 11 -10 6 -8 -20 l3 -35 554 -3 c441 -2 552 0 548 10 -2 7
-108 159 -234 338 -126 179 -341 484 -477 678 l-248 352 447 672 c246 370 450
678 452 685 4 10 -67 13 -360 13 l-365 0 -102 -162 c-57 -90 -227 -361 -378
-603 -151 -242 -281 -447 -289 -455 -11 -12 -13 85 -13 603 l0 617 -440 0
c-427 0 -440 -1 -431 -19z"/>
</g>
</svg>
