<?xml version="1.0" standalone="no"?>
<!DOCTYPE svg PUBLIC "-//W3C//DTD SVG 20010904//EN"
 "http://www.w3.org/TR/2001/REC-SVG-20010904/DTD/svg10.dtd">
<svg version="1.0" xmlns="http://www.w3.org/2000/svg"
 width="768.000000pt" height="432.000000pt" viewBox="0 0 768.000000 432.000000"
 preserveAspectRatio="xMidYMid meet">

<g transform="translate(0.000000,432.000000) scale(0.100000,-0.100000)"
fill="#000000" stroke="none">
<path d="M1420 4146 c-13 -35 -14 -1904 -1 -1939 8 -20 398 -516 1116 -1417
110 -139 387 -488 433 -547 18 -23 48 -51 66 -62 33 -21 44 -21 788 -21 657 0
757 2 768 15 7 8 10 20 7 27 -3 7 -240 308 -527 668 -713 895 -1330 1671
-1479 1859 -68 86 -226 284 -350 441 -125 157 -308 386 -406 510 -322 406
-362 455 -383 474 -21 18 -22 18 -32 -8z"/>
<path d="M6213 4164 c-7 -3 -140 -165 -295 -361 -156 -196 -391 -491 -523
-657 -132 -166 -281 -353 -331 -416 -50 -63 -278 -351 -507 -639 -284 -357
-417 -531 -417 -547 l0 -24 778 0 c742 0 778 1 808 19 41 25 506 615 527 669
16 39 17 126 17 980 0 832 -2 940 -16 960 -15 22 -20 24 -41 16z"/>
</g>
</svg>
